<?xml version="1.0" standalone="no"?><!DOCTYPE svg PUBLIC "-//W3C//DTD SVG 1.1//EN" "http://www.w3.org/Graphics/SVG/1.1/DTD/svg11.dtd"><svg t="1588652405147" class="icon" viewBox="0 0 1024 1024" version="1.1" xmlns="http://www.w3.org/2000/svg" p-id="30067" xmlns:xlink="http://www.w3.org/1999/xlink" width="128" height="128"><defs><style type="text/css"></style></defs><path d="M741.935539 661.333333c-54.518519 0-99.555556 46.222222-99.555555 100.740741s45.037037 100.740741 99.555555 100.740741 99.555556-46.222222 99.555556-100.740741c-1.185185-56.888889-46.222222-100.740741-99.555556-100.740741z m0 148.148148c-27.259259 0-48.592593-22.518519-48.592592-49.777777 0-27.259259 21.333333-49.777778 48.592592-49.777778s48.592593 22.518519 48.592593 49.777778c0 28.444444-22.518519 49.777778-48.592593 49.777777z" p-id="30068"></path><path d="M1008.602206 713.481481c0-2.37037 0-3.555556-1.185185-3.555555v-1.185185c-3.555556-22.518519-18.962963-36.740741-36.740741-36.740741H968.30591c-28.444444 0-50.962963-23.703704-50.962963-52.148148 0-5.925926 3.555556-16.592593 4.74074-20.148148 8.296296-20.148148 2.37037-42.666667-16.592592-56.888889l-66.370371-36.740741c-5.925926-2.37037-11.851852-3.555556-17.777777-3.555555-13.037037 0-24.888889 4.740741-34.370371 14.222222-9.481481 10.666667-30.814815 23.703704-41.481481 23.703703-11.851852 0-32-15.407407-41.481482-26.074074-7.111111-9.481481-20.148148-14.222222-35.555555-14.222222-5.925926 0-11.851852 2.37037-16.592593 3.555556l-69.925926 36.74074-2.37037 2.370371c-17.777778 11.851852-24.888889 35.555556-16.592593 54.518518 0 1.185185 1.185185 2.37037 1.185185 4.740741 1.185185 3.555556 3.555556 10.666667 3.555556 16.592593 0 28.444444-22.518519 52.148148-50.962963 52.148148h-2.37037c-18.962963 0-33.185185 14.222222-36.740741 37.925926 0 1.185185 0 3.555556-1.185185 8.296296-1.185185 10.666667-4.740741 29.62963-4.740741 45.037037 0 15.407407 2.37037 34.37037 4.740741 45.037037 0 3.555556 1.185185 7.111111 1.185185 8.296296 3.555556 22.518519 18.962963 36.740741 36.740741 36.740741h3.555555c28.444444 0 50.962963 23.703704 50.962963 52.148148 0 5.925926-3.555556 16.592593-4.740741 20.148148-8.296296 20.148148-2.37037 42.666667 16.592593 56.888889l65.185185 36.740741h1.185185c5.925926 2.37037 10.666667 3.555556 17.777778 3.555556 11.851852 0 23.703704-4.740741 35.555556-14.222223 7.111111-8.296296 29.62963-26.074074 41.481481-26.074074 14.222222 0 34.37037 16.592593 41.481482 26.074074 8.296296 10.666667 21.333333 16.592593 35.555555 16.592593 4.740741 0 9.481481-1.185185 15.407408-2.37037l3.555555-2.370371 66.370371-36.74074 2.37037-2.370371c17.777778-11.851852 24.888889-35.555556 16.592593-54.518518 0-1.185185-1.185185-2.37037-1.185186-4.740741-1.185185-3.555556-3.555556-10.666667-3.555555-16.592593 0-28.444444 22.518519-52.148148 50.962963-52.148148h2.37037c18.962963 0 33.185185-14.222222 36.740741-36.740741 0-1.185185 5.925926-29.62963 5.925926-53.333333-1.185185-18.962963-4.740741-40.296296-5.925926-48.592593z m-58.074074 77.037038c-53.333333 9.481481-92.444444 56.888889-92.444445 111.407407 0 10.666667 2.37037 18.962963 3.555556 27.259259 0 1.185185 0 2.37037 1.185185 3.555556l-41.481481 22.518518c-3.555556-3.555556-10.666667-9.481481-17.777778-14.222222-18.962963-15.407407-41.481481-24.888889-62.814815-24.888889-20.148148 0-40.296296 8.296296-61.62963 24.888889-5.925926 3.555556-9.481481 7.111111-14.222222 10.666667l-3.555555 3.555555-39.111111-22.518518c2.37037-8.296296 4.740741-18.962963 4.74074-30.814815 0-55.703704-39.111111-103.111111-92.444444-111.407407-1.185185-9.481481-2.37037-21.333333-2.370371-30.814815s1.185185-21.333333 2.370371-30.814815c53.333333-9.481481 92.444444-56.888889 92.444444-111.407408 0-9.481481-2.37037-18.962963-3.555555-26.074074 0-1.185185-1.185185-2.37037-1.185185-3.555555l42.666666-23.703704c2.37037 2.37037 5.925926 4.740741 10.666667 8.296296l7.111111 5.925926c20.148148 15.407407 41.481481 22.518519 60.444444 22.518519 18.962963 0 40.296296-8.296296 60.444445-22.518519 8.296296-4.740741 13.037037-9.481481 17.777778-14.222222l40.296296 22.518519c-2.37037 8.296296-4.740741 18.962963-4.740741 30.814814 0 55.703704 39.111111 103.111111 92.444445 111.407408 1.185185 8.296296 2.37037 21.333333 2.37037 30.814815 2.37037 10.666667 0 23.703704-1.185185 30.814815z" p-id="30069"></path><path d="M442.083687 0C301.04665 0 184.898502 114.962963 184.898502 257.185185c0 78.222222 35.555556 154.074074 99.555556 202.666667l16.592592 13.037037-17.777777 7.111111C116.157761 548.740741 8.30591 707.555556 8.30591 886.518519v90.074074c0 17.777778 14.222222 33.185185 32 33.185185h480c-16.592593-20.148148-28.444444-41.481481-40.296297-66.370371H71.120724v-56.888888c0-192 145.777778-350.814815 334.222223-369.777778 10.666667-2.37037 23.703704-2.37037 34.37037-2.370371h5.925926c41.481481-3.555556 104.296296-13.037037 137.481481-41.481481l16.592593-13.037037c62.814815-49.777778 99.555556-122.074074 99.555556-202.666667C698.083687 114.962963 581.935539 0 442.083687 0z m-2.37037 448c-104.296296 0-189.62963-85.333333-189.62963-192 0-105.481481 85.333333-192 189.62963-192s189.62963 85.333333 189.62963 192c0 105.481481-85.333333 192-189.62963 192z" p-id="30070"></path></svg>