<?xml version="1.0" standalone="no"?><!DOCTYPE svg PUBLIC "-//W3C//DTD SVG 1.1//EN" "http://www.w3.org/Graphics/SVG/1.1/DTD/svg11.dtd"><svg t="1588652139259" class="icon" viewBox="0 0 1024 1024" version="1.1" xmlns="http://www.w3.org/2000/svg" p-id="21044" xmlns:xlink="http://www.w3.org/1999/xlink" width="128" height="128"><defs><style type="text/css"></style></defs><path d="M820.541 5.632h-598.66c-76.184 0-127.55 62.507-127.55 138.693v748.03c0 76.06 51.489 127.549 127.55 127.549h479.913v-1.33c112.73-12.93 224.854-127.975 237.546-254.815h1.329V144.325C940.669 68.14 896.6 5.632 820.54 5.632z m-128.555 952.81H674.75V805.647c0-19.003 15.471-34.443 34.444-34.443h168.198c-16.31 85.34-107.776 187.236-185.406 187.236zM879.18 713.813H664.959v0.391c-24.168 6.29-40.899 23.018-47.18 47.186h-0.373v197.05H218.161c-38.093 0-62.366-24.272-62.366-62.36V140.606c0-38.092 24.273-73.508 62.366-73.508h598.66c38.086 0 62.359 35.416 62.359 73.508v573.209z m-418.087-93.745H291.486c-13.505 0-24.51 15.096-24.51 28.6s11.005 28.607 24.51 28.607h169.607c13.504 0 24.504-15.102 24.504-28.607 0-13.617-10.977-28.6-24.504-28.6z m230.66-206.373H299.647c-18.016 0-32.67 12.626-32.67 30.622 0 18.016 14.652 32.67 32.67 32.67h392.085c18.019 0 32.672-14.652 32.672-32.67 0.019-18.113-14.655-30.622-32.651-30.622z m0-204.325H299.647c-18.016 0-32.67 12.604-32.67 30.622s14.652 30.622 32.67 30.622h392.085c18.019 0 32.672-12.626 32.672-30.622 0.019-18.018-14.655-30.622-32.651-30.622z m0 0" p-id="21045"></path></svg>