<?xml version="1.0" standalone="no"?><!DOCTYPE svg PUBLIC "-//W3C//DTD SVG 1.1//EN" "http://www.w3.org/Graphics/SVG/1.1/DTD/svg11.dtd"><svg t="1588652287624" class="icon" viewBox="0 0 1024 1024" version="1.1" xmlns="http://www.w3.org/2000/svg" p-id="29323" xmlns:xlink="http://www.w3.org/1999/xlink" width="128" height="128"><defs><style type="text/css"></style></defs><path d="M401.067 469.333H110.933c-34.133 0-68.266-34.133-68.266-68.266v-281.6c0-34.134 25.6-68.267 68.266-68.267h290.134c34.133 0 68.266 34.133 68.266 68.267v281.6c0 34.133-34.133 68.266-68.266 68.266zM128 384h264.533V128H128v256z m785.067 597.333H622.933c-34.133 0-68.266-34.133-68.266-68.266v-281.6c0-34.134 25.6-68.267 68.266-68.267h290.134c34.133 0 68.266 34.133 68.266 68.267v281.6c0 34.133-34.133 68.266-68.266 68.266zM640 896h264.533V640H640v256z m-238.933 85.333H110.933c-34.133 0-68.266-34.133-68.266-68.266v-281.6c0-34.134 25.6-68.267 68.266-68.267h290.134c34.133 0 68.266 34.133 68.266 68.267v281.6c0 34.133-34.133 68.266-68.266 68.266zM128 896h264.533V640H128v256z m768-725.333H597.333c-25.6 0-42.666-17.067-42.666-42.667s17.066-42.667 42.666-42.667H896c25.6 0 42.667 17.067 42.667 42.667S921.6 170.667 896 170.667zM810.667 384H597.333c-25.6 0-42.666-17.067-42.666-42.667s17.066-42.666 42.666-42.666h213.334c25.6 0 42.666 17.066 42.666 42.666S836.267 384 810.667 384z" p-id="29324"></path></svg>