<?xml version="1.0" standalone="no"?><!DOCTYPE svg PUBLIC "-//W3C//DTD SVG 1.1//EN" "http://www.w3.org/Graphics/SVG/1.1/DTD/svg11.dtd"><svg t="1588862803011" class="icon" viewBox="0 0 1024 1024" version="1.1" xmlns="http://www.w3.org/2000/svg" p-id="2490" xmlns:xlink="http://www.w3.org/1999/xlink" width="128" height="128"><defs><style type="text/css"></style></defs><path d="M818.688 217.6c37.376 59.392 58.88 128.512 58.88 201.728 0 211.968-179.2 386.56-408.064 407.552 41.472 13.312 86.016 20.48 132.608 20.48 19.456 0 39.936-1.536 60.416-4.608l147.456 89.6c4.608 3.072 10.24 4.608 15.872 4.608 5.12 0 10.24-1.536 14.848-4.096 9.728-5.12 15.36-15.36 15.36-26.624v-142.848c85.504-65.536 134.656-159.744 134.656-260.096 0.512-118.784-68.096-224.256-172.032-285.696z" p-id="2491"></path><path d="M812.032 418.816c0-189.952-174.592-344.064-389.12-344.064s-389.12 154.624-389.12 344.064c0 100.352 48.64 194.56 134.656 260.096v142.848c0 11.264 6.144 21.504 15.36 26.624 4.608 2.56 9.728 4.096 14.848 4.096 5.632 0 11.264-1.536 15.872-4.608l147.456-89.6c20.48 3.072 40.96 4.608 60.416 4.608 215.04 0.512 389.632-154.112 389.632-344.064z m-389.12 260.096c-24.064 0-49.152-2.56-73.728-8.192h-2.048c-1.536 0-3.072 0.512-4.608 1.024l-92.16 55.296 1.024-88.064c0-3.072-1.536-6.144-4.096-7.68C165.888 582.656 117.76 502.784 117.76 418.816 117.76 275.456 254.464 158.72 422.4 158.72S727.04 275.456 727.04 418.816c0.512 143.36-136.192 260.096-304.128 260.096z" p-id="2492"></path><path d="M602.112 365.568c-29.696 0-53.248 24.064-53.248 53.248 0 29.696 24.064 53.248 53.248 53.248 29.696 0 53.248-24.064 53.248-53.248 0.512-29.184-23.552-53.248-53.248-53.248zM422.912 365.568c-29.696 0-53.248 24.064-53.248 53.248 0 29.696 24.064 53.248 53.248 53.248 29.696 0 53.248-24.064 53.248-53.248 0.512-29.184-23.552-53.248-53.248-53.248zM243.712 365.568c-29.696 0-53.248 24.064-53.248 53.248 0 29.696 24.064 53.248 53.248 53.248 29.696 0 53.248-24.064 53.248-53.248 0.512-29.184-23.552-53.248-53.248-53.248z" p-id="2493"></path></svg>