<?xml version="1.0" standalone="no"?><!DOCTYPE svg PUBLIC "-//W3C//DTD SVG 1.1//EN" "http://www.w3.org/Graphics/SVG/1.1/DTD/svg11.dtd"><svg t="1588652793695" class="icon" viewBox="0 0 1194 1024" version="1.1" xmlns="http://www.w3.org/2000/svg" p-id="7619" xmlns:xlink="http://www.w3.org/1999/xlink" width="149.25" height="128"><defs><style type="text/css"></style></defs><path d="M938.73155 969.068222a55.528863 55.528863 0 0 1 17.912536-40.60175 477.667638 477.667638 0 0 0 133.149855-311.678134A501.55102 501.55102 0 0 0 597.199188 107.475219a501.55102 501.55102 0 0 0-492.594752 509.313119 458.560933 458.560933 0 0 0 113.446064 313.469388 55.528863 55.528863 0 0 1 14.927114 37.616326 53.737609 53.737609 0 0 1-52.54344 54.931779 52.54344 52.54344 0 0 1-29.854228-9.553353l-15.524198-17.912536A566.633236 566.633236 0 0 1 0.11464 616.788338 607.234985 607.234985 0 0 1 597.199188 0a607.234985 607.234985 0 0 1 597.084548 616.788338 586.934111 586.934111 0 0 1-158.227405 381.537026c-3.582507 4.776676-7.762099 8.956268-11.941691 13.732945a51.946356 51.946356 0 0 1-32.83965 11.941691 53.737609 53.737609 0 0 1-52.54344-54.334694zM543.461579 739.787755a100.907289 100.907289 0 0 1 0-139.717784L776.324553 352.279883a15.524198 15.524198 0 0 1 20.897959 0 17.315452 17.315452 0 0 1 6.56793 20.300875l-103.892711 330.78484a99.116035 99.116035 0 0 1-20.89796 35.825073 94.339359 94.339359 0 0 1-132.552769 5.970845H543.461579z" p-id="7620"></path></svg>