<?xml version="1.0" standalone="no"?><!DOCTYPE svg PUBLIC "-//W3C//DTD SVG 1.1//EN" "http://www.w3.org/Graphics/SVG/1.1/DTD/svg11.dtd"><svg t="1588650129823" class="icon" viewBox="0 0 1210 1024" version="1.1" xmlns="http://www.w3.org/2000/svg" p-id="5450" xmlns:xlink="http://www.w3.org/1999/xlink" width="151.25" height="128"><defs><style type="text/css"></style></defs><path d="M1210.182 698.182V558.545h-93.091V186.182A93.09 93.09 0 0 0 1024 93.09H186.182a93.09 93.09 0 0 0-93.091 93.09v651.637a93.09 93.09 0 0 0 93.09 93.091h186.183V1024H1024 186.182A186.182 186.182 0 0 1 0 837.818V186.182A186.182 186.182 0 0 1 186.182 0H1024a186.182 186.182 0 0 1 186.182 186.182v512z" p-id="5451"></path><path d="M232.727 232.727h232.728q46.545 0 46.545 46.546 0 46.545-46.545 46.545H232.727q-46.545 0-46.545-46.545 0-46.546 46.545-46.546zM232.727 418.91h139.637q46.545 0 46.545 46.545T372.364 512H232.727q-46.545 0-46.545-46.545 0-46.546 46.545-46.546zM814.545 605.09a209.455 209.455 0 1 1 0-418.908 209.455 209.455 0 0 1 0 418.909z m0-93.09a116.364 116.364 0 1 0 0-232.727 116.364 116.364 0 0 0 0 232.727z m-256 139.636h512a93.09 93.09 0 0 1 93.091 93.091V930.91a93.09 93.09 0 0 1-93.09 93.091h-512a93.09 93.09 0 0 1-93.091-93.09V744.726a93.09 93.09 0 0 1 93.09-93.09z m0 93.091V930.91h512V744.727h-512z" p-id="5452"></path></svg>